<svg width="40" height="40" viewBox="0 0 40 40" fill="none" xmlns="http://www.w3.org/2000/svg">
<path d="M0 20C0 8.95431 8.95431 0 20 0C31.0457 0 40 8.95431 40 20C40 31.0457 31.0457 40 20 40C8.95431 40 0 31.0457 0 20Z" fill="#FEF9F5"/>
<path d="M13.3346 13.334H26.6679C27.5846 13.334 28.3346 14.084 28.3346 15.0007V25.0006C28.3346 25.9173 27.5846 26.6673 26.6679 26.6673H13.3346C12.418 26.6673 11.668 25.9173 11.668 25.0006V15.0007C11.668 14.084 12.418 13.334 13.3346 13.334Z" stroke="#DB620A" stroke-width="1.5" stroke-linecap="round" stroke-linejoin="round"/>
<path d="M28.3346 15L20.0013 20.8333L11.668 15" stroke="#DB620A" stroke-width="1.5" stroke-linecap="round" stroke-linejoin="round"/>
</svg>
