<svg width="40" height="40" viewBox="0 0 40 40" fill="none" xmlns="http://www.w3.org/2000/svg">
<path d="M0 20C0 8.95431 8.95431 0 20 0C31.0457 0 40 8.95431 40 20C40 31.0457 31.0457 40 20 40C8.95431 40 0 31.0457 0 20Z" fill="#FEF9F5"/>
<path d="M28.3328 24.1003V26.6003C28.3341 26.8323 28.2867 27.0621 28.1937 27.2748C28.1007 27.4875 27.9644 27.6784 27.7934 27.8353C27.6223 27.9922 27.4204 28.1116 27.2006 28.1859C26.9807 28.2603 26.7478 28.2879 26.5162 28.267C23.9523 27.9884 21.4891 27.1121 19.3249 25.7087C17.3115 24.4292 15.6044 22.7221 14.3249 20.7087C12.9165 18.5346 12.0402 16.0595 11.7665 13.4836C11.7457 13.2532 11.7731 13.0214 11.8471 12.8025C11.9211 12.5837 12.0398 12.3826 12.1957 12.212C12.3517 12.0414 12.5416 11.9051 12.7533 11.8121C12.9649 11.719 13.1937 11.671 13.4249 11.672H15.9249C16.3294 11.668 16.7215 11.8067 17.0281 12.0632C17.3348 12.3198 17.5351 12.678 17.5915 13.0703C17.6971 13.8543 17.893 14.6234 18.1749 15.3653C18.2868 15.6545 18.3146 15.9693 18.2553 16.2739C18.196 16.5785 18.0519 16.8602 17.8415 17.0836L16.8249 18.1003C17.9964 20.2048 19.7955 22.0039 21.8995 23.1753L22.9162 22.1587C23.1396 21.9482 23.4213 21.8042 23.7259 21.7449C24.0305 21.6856 24.3453 21.7134 24.6345 21.8253C25.3764 22.1072 26.1456 22.3031 26.9295 22.4087C27.3264 22.4658 27.6884 22.6697 27.9449 22.9816C28.2015 23.2935 28.3368 23.6916 28.3328 24.1003Z" stroke="#DB620A" stroke-width="1.5" stroke-linecap="round" stroke-linejoin="round"/>
</svg>
