<svg width="419" height="400" viewBox="0 0 419 400" fill="none" xmlns="http://www.w3.org/2000/svg">
<path opacity="0.341693" d="M209.5 335.275C290.492 335.275 356.15 274.71 356.15 200C356.15 125.289 290.492 64.7246 209.5 64.7246C128.507 64.7246 62.8496 125.289 62.8496 200C62.8496 274.71 128.507 335.275 209.5 335.275Z" fill="#FEF9F5"/>
<path opacity="0.469968" d="M209.5 306.288C273.137 306.288 324.725 258.701 324.725 200C324.725 141.299 273.137 93.7129 209.5 93.7129C145.863 93.7129 94.2754 141.299 94.2754 200C94.2754 258.701 145.863 306.288 209.5 306.288Z" fill="#F1C09D"/>
<path d="M157.125 180.676C157.125 154.909 174.583 138.805 209.5 132.363C244.417 138.805 261.875 154.909 261.875 180.676" stroke="#DB620A" stroke-width="7.73" stroke-linecap="round"/>
<path d="M172.837 195.17C172.837 187.165 165.802 180.676 157.125 180.676C148.447 180.676 141.412 187.165 141.412 195.17V204.832C141.412 212.837 148.447 219.326 157.125 219.326C165.802 219.326 172.837 212.837 172.837 204.832V195.17Z" fill="#EC7833"/>
<path d="M157.124 207.731C161.752 207.731 165.504 204.271 165.504 200.001C165.504 195.732 161.752 192.271 157.124 192.271C152.496 192.271 148.744 195.732 148.744 200.001C148.744 204.271 152.496 207.731 157.124 207.731Z" fill="#FFEDD4"/>
<path d="M277.587 195.17C277.587 187.165 270.552 180.676 261.875 180.676C253.197 180.676 246.162 187.165 246.162 195.17V204.832C246.162 212.837 253.197 219.326 261.875 219.326C270.552 219.326 277.587 212.837 277.587 204.832V195.17Z" fill="#EC7833"/>
<path d="M261.874 207.731C266.502 207.731 270.254 204.271 270.254 200.001C270.254 195.732 266.502 192.271 261.874 192.271C257.246 192.271 253.494 195.732 253.494 200.001C253.494 204.271 257.246 207.731 261.874 207.731Z" fill="#FFEDD4"/>
<path d="M172.836 219.326C169.345 232.21 165.853 245.093 162.361 257.976" stroke="#DB620A" stroke-width="5.7975" stroke-linecap="round"/>
<path d="M162.362 270.536C166.991 270.536 170.742 267.075 170.742 262.806C170.742 258.537 166.991 255.076 162.362 255.076C157.734 255.076 153.982 258.537 153.982 262.806C153.982 267.075 157.734 270.536 162.362 270.536Z" fill="#F07D3C"/>
<g opacity="0.9">
<path d="M146.651 122.699H94.2758C88.4906 122.699 83.8008 127.025 83.8008 132.362V156.518C83.8008 161.854 88.4906 166.18 94.2758 166.18H146.651C152.436 166.18 157.126 161.854 157.126 156.518V132.362C157.126 127.025 152.436 122.699 146.651 122.699Z" fill="#5B9BD5"/>
<path d="M94.2754 166.18H104.75L99.5129 175.842L94.2754 166.18Z" fill="#5B9BD5"/>
<path d="M118.82 145.477V145.394C118.829 144.521 118.921 143.825 119.095 143.308C119.269 142.791 119.516 142.373 119.836 142.052C120.156 141.732 120.541 141.437 120.989 141.167C121.259 141.002 121.501 140.808 121.716 140.584C121.931 140.355 122.101 140.092 122.224 139.795C122.352 139.497 122.416 139.168 122.416 138.806C122.416 138.358 122.311 137.969 122.101 137.64C121.89 137.31 121.609 137.056 121.257 136.878C120.904 136.7 120.513 136.61 120.083 136.61C119.708 136.61 119.346 136.688 118.999 136.844C118.651 136.999 118.361 137.244 118.127 137.578C117.894 137.912 117.759 138.349 117.722 138.889H115.993C116.03 138.111 116.231 137.445 116.597 136.892C116.967 136.338 117.455 135.915 118.059 135.622C118.667 135.329 119.342 135.183 120.083 135.183C120.888 135.183 121.588 135.343 122.183 135.663C122.782 135.984 123.244 136.423 123.569 136.981C123.899 137.539 124.063 138.175 124.063 138.889C124.063 139.392 123.986 139.847 123.83 140.254C123.679 140.662 123.459 141.025 123.171 141.346C122.888 141.666 122.544 141.949 122.142 142.197C121.739 142.448 121.417 142.714 121.174 142.993C120.932 143.267 120.756 143.594 120.646 143.974C120.536 144.354 120.476 144.827 120.467 145.394V145.477H118.82ZM119.699 149.539C119.36 149.539 119.07 149.418 118.827 149.176C118.585 148.933 118.463 148.643 118.463 148.304C118.463 147.966 118.585 147.675 118.827 147.433C119.07 147.19 119.36 147.069 119.699 147.069C120.037 147.069 120.328 147.19 120.57 147.433C120.813 147.675 120.934 147.966 120.934 148.304C120.934 148.528 120.877 148.734 120.762 148.922C120.653 149.109 120.504 149.26 120.316 149.375C120.133 149.485 119.927 149.539 119.699 149.539Z" fill="white"/>
<path d="M324.725 103.375H272.35C266.565 103.375 261.875 107.701 261.875 113.038V137.194C261.875 142.53 266.565 146.856 272.35 146.856H324.725C330.51 146.856 335.2 142.53 335.2 137.194V113.038C335.2 107.701 330.51 103.375 324.725 103.375Z" fill="#4CAF50"/>
<path d="M324.725 146.855H314.25L319.488 156.518L324.725 146.855Z" fill="#4CAF50"/>
<path d="M282.824 127.532C284.56 127.532 285.967 126.234 285.967 124.633C285.967 123.032 284.56 121.734 282.824 121.734C281.089 121.734 279.682 123.032 279.682 124.633C279.682 126.234 281.089 127.532 282.824 127.532Z" fill="white"/>
<path d="M298.537 127.532C300.273 127.532 301.68 126.234 301.68 124.633C301.68 123.032 300.273 121.734 298.537 121.734C296.801 121.734 295.395 123.032 295.395 124.633C295.395 126.234 296.801 127.532 298.537 127.532Z" fill="white"/>
<path d="M314.25 127.532C315.985 127.532 317.392 126.234 317.392 124.633C317.392 123.032 315.985 121.734 314.25 121.734C312.514 121.734 311.107 123.032 311.107 124.633C311.107 126.234 312.514 127.532 314.25 127.532Z" fill="white"/>
</g>
<path opacity="0.4" d="M62.8495 89.847C66.3206 89.847 69.1345 87.2513 69.1345 84.0495C69.1345 80.8476 66.3206 78.252 62.8495 78.252C59.3783 78.252 56.5645 80.8476 56.5645 84.0495C56.5645 87.2513 59.3783 89.847 62.8495 89.847Z" fill="#DB620A"/>
<path opacity="0.4" d="M356.15 111.105C360.778 111.105 364.53 107.644 364.53 103.375C364.53 99.1054 360.778 95.6445 356.15 95.6445C351.521 95.6445 347.77 99.1054 347.77 103.375C347.77 107.644 351.521 111.105 356.15 111.105Z" fill="#F07D3C"/>
<path opacity="0.4" d="M335.2 301.455C338.093 301.455 340.438 299.292 340.438 296.624C340.438 293.956 338.093 291.793 335.2 291.793C332.308 291.793 329.963 293.956 329.963 296.624C329.963 299.292 332.308 301.455 335.2 301.455Z" fill="#5B9BD5"/>
<path opacity="0.9" d="M104.75 294.693C115.163 294.693 123.605 286.906 123.605 277.301C123.605 267.695 115.163 259.908 104.75 259.908C94.3362 259.908 85.8945 267.695 85.8945 277.301C85.8945 286.906 94.3362 294.693 104.75 294.693Z" fill="#4CAF50"/>
<path d="M98.4648 277.301L102.655 283.099L113.13 271.504" stroke="white" stroke-width="2.89875" stroke-linecap="round" stroke-linejoin="round"/>
<path opacity="0.9" d="M314.25 275.367C324.663 275.367 333.105 267.58 333.105 257.975C333.105 248.369 324.663 240.582 314.25 240.582C303.836 240.582 295.395 248.369 295.395 257.975C295.395 267.58 303.836 275.367 314.25 275.367Z" fill="#4CAF50"/>
<path d="M307.965 257.975L312.155 263.773L322.63 252.178" stroke="white" stroke-width="2.89875" stroke-linecap="round" stroke-linejoin="round"/>
</svg>
